HIERARCHY
ROOT root
{
	OFFSET 0.000000 0.000000 0.000000
	CHANNELS 6 Xposition Yposition Zposition Zrotation Yrotation Xrotation
	JOINT lhip
	{
		OFFSET 0.058581 -0.082280 -0.017664
		CHANNELS 3 Zrotation Yrotation Xrotation
		JOINT lknee
		{
			OFFSET 0.043451 -0.386469 0.008037
			CHANNELS 3 Zrotation Yrotation Xrotation
			JOINT lankle
			{
				OFFSET -0.014790 -0.426874 -0.037428
				CHANNELS 3 Zrotation Yrotation Xrotation
				JOINT ltoe
				{
					OFFSET 0.041054 -0.060286 0.122042
					CHANNELS 3 Zrotation Yrotation Xrotation
					End Site
					{
						OFFSET 0.000000 0.000000 0.000000
					}
				}
			}
		}
	}
	JOINT rhip
	{
		OFFSET -0.060310 -0.090513 -0.013543
		CHANNELS 3 Zrotation Yrotation Xrotation
		JOINT rknee
		{
			OFFSET -0.043257 -0.383688 -0.004843
			CHANNELS 3 Zrotation Yrotation Xrotation
			JOINT rankle
			{
				OFFSET 0.019056 -0.420046 -0.034562
				CHANNELS 3 Zrotation Yrotation Xrotation
				JOINT rtoe
				{
					OFFSET -0.034840 -0.062106 0.130323
					CHANNELS 3 Zrotation Yrotation Xrotation
					End Site
					{
						OFFSET 0.000000 0.000000 0.000000
					}
				}
			}
		}
	}
	JOINT lowerback
	{
		OFFSET 0.004439 0.124404 -0.038385
		CHANNELS 3 Zrotation Yrotation Xrotation
		JOINT upperback
		{
			OFFSET 0.004488 0.137956 0.026820
			CHANNELS 3 Zrotation Yrotation Xrotation
			JOINT chest
			{
				OFFSET -0.002265 0.056032 0.002855
				CHANNELS 3 Zrotation Yrotation Xrotation
				JOINT lowerneck
				{
					OFFSET -0.013390 0.211636 -0.033468
					CHANNELS 3 Zrotation Yrotation Xrotation
					JOINT upperneck
					{
						OFFSET 0.010113 0.088937 0.050410
						CHANNELS 3 Zrotation Yrotation Xrotation
						End Site
						{
							OFFSET 0.000000 0.000000 0.000000
						}
					}
				}
				JOINT lclavicle
				{
					OFFSET 0.071702 0.114000 -0.018898
					CHANNELS 3 Zrotation Yrotation Xrotation
					JOINT lshoulder
					{
						OFFSET 0.122921 0.045205 -0.019046
						CHANNELS 3 Zrotation Yrotation Xrotation
						JOINT lelbow
						{
							OFFSET 0.255332 -0.015649 -0.022946
							CHANNELS 3 Zrotation Yrotation Xrotation
							JOINT lwrist
							{
								OFFSET 0.265709 0.012698 -0.007375
								CHANNELS 3 Zrotation Yrotation Xrotation
								End Site
								{
									OFFSET 0.000000 0.000000 0.000000
								}
							}
						}
					}
				}
				JOINT rclavicle
				{
					OFFSET -0.082954 0.112472 -0.023707
					CHANNELS 3 Zrotation Yrotation Xrotation
					JOINT rshoulder
					{
						OFFSET -0.113228 0.046853 -0.008472
						CHANNELS 3 Zrotation Yrotation Xrotation
						JOINT relbow
						{
							OFFSET -0.260127 -0.014369 -0.031269
							CHANNELS 3 Zrotation Yrotation Xrotation
							JOINT rwrist
							{
								OFFSET -0.269108 0.006794 -0.006027
								CHANNELS 3 Zrotation Yrotation Xrotation
								End Site
								{
									OFFSET 0.000000 0.000000 0.000000
								}
							}
						}
					}
				}
			}
		}
	}
}
MOTION
Frames: 7
Frame Time: 0.033333
-0.783191 -0.687611 0.909967 171.725964 -0.222436 111.227430 6.080194 1.562217 8.777127 -7.383076 -17.749213 22.217822 -6.501997 2.651967 -0.768724 0.000000 -0.000000 0.000000 -8.154310 5.985131 -65.691128 0.050157 -19.759574 65.161449 -2.920175 -6.406246 -19.563621 0.000000 -0.000000 0.000000 1.673116 -14.783595 19.067323 6.718403 -2.332730 1.635279 -0.189047 -7.428690 2.381159 1.848162 6.033308 -13.035890 -3.357181 -2.448220 -3.640848 -25.241172 -3.110944 1.698281 -51.490558 -7.488566 15.271046 46.007792 -76.630561 -31.429693 25.071266 -9.596144 -11.610292 23.722810 2.270987 -3.829835 58.347050 11.638359 9.371721 -87.986496 44.425491 -89.099572 -15.135929 2.716849 -34.198972 
-0.764586 -0.589920 0.916044 169.756095 -0.472315 110.641605 3.006507 0.579528 13.619248 -4.242876 -15.593426 22.918130 -4.460505 7.555650 0.238201 0.000000 -0.000000 0.000000 -7.483488 6.908414 -65.085090 3.123877 -21.118515 51.657504 -2.658664 -7.259278 -18.009461 0.000000 -0.000000 0.000000 3.380661 -15.598287 18.152572 7.179267 -2.935418 1.822401 -0.523588 -8.063882 2.997823 1.154281 7.223768 -13.721702 -5.731158 0.305227 -4.663025 -24.642155 -0.868590 3.059566 -51.814271 -3.782131 13.923758 24.829121 -75.374476 -10.376989 21.873486 -9.969237 -11.226118 23.682386 0.497606 -5.255209 60.489390 13.623510 12.120903 -102.725592 44.226572 -96.274916 -13.740902 5.039772 -26.631354 
-0.743138 -0.492433 0.910816 166.192191 -0.949432 109.946704 0.911605 1.248971 15.611447 -7.026446 -12.554997 30.368098 -5.547313 5.617251 -0.438162 0.000000 -0.000000 0.000000 -4.560598 8.037264 -62.162256 4.228090 -21.550688 43.316581 -2.576150 -7.982248 -16.348057 0.000000 -0.000000 0.000000 3.117256 -14.386957 17.447665 7.871959 -3.618379 2.393268 -0.051224 -8.331938 3.001314 0.952965 8.490405 -12.670374 -8.011006 3.174702 -6.708696 -24.634048 0.170480 4.568103 -53.294188 1.919661 13.114919 7.836161 -69.992865 5.959505 19.798245 -9.574194 -9.755099 23.418869 1.145681 -6.964627 61.204037 17.044213 14.877169 -116.030587 42.623489 -102.716767 -11.955822 6.234594 -16.888548 
-0.722111 -0.395759 0.897859 163.896826 -1.116674 109.107239 1.056721 3.036322 13.118071 -10.540805 -7.764115 44.352443 -3.897147 4.620128 -0.686372 0.000000 -0.000000 0.000000 -0.971265 8.462054 -56.774699 4.392925 -22.852032 42.083230 -11.270923 -11.744155 -12.654164 0.000000 -0.000000 0.000000 4.048010 -13.580512 17.112366 8.022487 -4.231732 2.457192 0.185771 -8.301725 2.578651 0.987429 6.323090 -11.684745 -8.661194 7.662369 -8.636486 -25.448487 -0.201522 6.531903 -55.567711 8.752923 10.914820 -3.108856 -61.992855 18.327662 18.054182 -8.279725 -7.655257 21.333741 3.670922 -7.953498 62.423762 22.325851 15.995569 -126.436916 42.275851 -105.526657 -10.855600 7.549252 -4.620314 
-0.699795 -0.302165 0.879666 161.303796 -1.898400 107.503228 2.088199 5.482508 7.750041 -6.945739 0.761377 61.377389 -3.426219 6.192012 -3.342955 0.000000 -0.000000 0.000000 1.652219 8.351773 -51.489391 1.675070 -20.664512 52.036297 -13.798010 -14.571242 -26.432349 0.000000 -0.000000 0.000000 3.852894 -11.824210 17.358052 7.663325 -4.479600 3.656237 -0.263136 -7.342588 1.674928 2.902414 6.087807 -11.907162 -9.340922 8.322587 -9.050717 -26.546956 -1.832162 8.290661 -57.545823 15.779668 8.354692 -6.734067 -53.406509 24.150190 15.908900 -7.535665 -4.321421 20.681866 8.341285 -8.628227 59.825826 27.395206 14.773794 -135.075679 43.291033 -108.129948 -7.372632 9.171782 7.383150 
-0.677365 -0.213787 0.868774 158.033963 -0.853940 106.360580 3.772505 4.557378 -1.674559 -4.778077 5.824276 78.108028 0.212987 9.127452 -9.058373 0.000000 -0.000000 0.000000 3.414764 10.003677 -45.229997 2.951241 -17.900454 56.400503 -14.255371 -17.459262 -32.261402 0.000000 -0.000000 0.000000 4.569748 -9.090694 19.631710 7.308580 -2.715162 3.793465 -0.047753 -5.091611 1.026362 3.423855 3.519421 -14.541032 -8.983540 7.629842 -9.121572 -29.142442 -3.879457 8.915060 -58.076782 20.910361 7.166904 -6.488547 -43.274322 24.716929 13.362385 -7.300152 0.379982 20.598647 14.085337 -8.076073 49.766745 30.526948 11.265724 -138.791445 46.249347 -109.538381 -6.387746 10.861699 14.217306 
-0.652308 -0.125122 0.869480 155.294329 -0.882255 105.132455 4.511529 2.762973 -12.969489 -5.780429 7.059994 88.239474 3.047103 9.617842 -12.159530 0.000000 -0.000000 0.000000 4.932558 8.312205 -34.977564 4.651458 -13.990527 54.846688 -13.721840 -16.876023 -36.429118 0.000000 -0.000000 0.000000 5.086811 -5.194988 21.362793 6.158908 -1.798365 4.457464 -0.194675 -2.655919 -0.157015 3.614043 0.262384 -16.114883 -7.506152 4.757531 -9.787893 -30.097899 -4.475785 8.939227 -56.658016 25.528211 6.018744 -7.667273 -36.875994 28.013779 7.330159 -5.850171 4.313202 19.295566 17.334411 -6.535141 40.541793 29.023929 5.703733 -135.272719 54.194533 -105.459156 -5.759829 12.327275 19.241258 
